<?xml version="1.0" standalone="no"?>
<!DOCTYPE svg PUBLIC "-//W3C//DTD SVG 20010904//EN"
 "http://www.w3.org/TR/2001/REC-SVG-20010904/DTD/svg10.dtd">
<svg version="1.0" xmlns="http://www.w3.org/2000/svg"
 width="512.000000pt" height="512.000000pt" viewBox="0 0 512.000000 512.000000"
 preserveAspectRatio="xMidYMid meet">
<metadata>
Created by potrace 1.14, written by Peter Selinger 2001-2017
</metadata>
<g transform="translate(0.000000,512.000000) scale(0.100000,-0.100000)"
fill="#000000" stroke="none">
<path d="M2379 5116 c-2 -2 -35 -6 -74 -9 -176 -16 -420 -70 -610 -137 -834
-295 -1474 -1036 -1644 -1905 -40 -200 -46 -267 -45 -515 0 -184 3 -241 19
-345 3 -16 7 -43 9 -60 8 -58 38 -191 62 -277 161 -579 532 -1093 1032 -1430
274 -185 588 -317 902 -381 214 -44 289 -51 525 -52 217 0 307 8 480 41 44 8
91 18 105 20 131 25 390 118 553 200 329 164 585 366 839 662 93 107 219 299
299 452 106 202 204 479 234 659 3 19 8 37 10 40 3 6 7 27 21 123 25 172 25
552 1 708 -9 58 -19 116 -22 130 -3 14 -10 46 -15 71 -26 130 -96 342 -165
498 -55 124 -124 250 -206 371 -352 528 -908 919 -1514 1065 -95 22 -176 38
-255 50 -19 3 -53 7 -75 10 -46 7 -460 16 -466 11z"/>
</g>
</svg>
