<svg width="1280" height="720" viewBox="0 0 1280 720" fill="none" xmlns="http://www.w3.org/2000/svg">
<g clip-path="url(#clip0_384:82)">
<rect width="1280" height="720" fill="white"/>
<rect x="105.304" y="-14.5295" width="35.2856" height="31.8976" transform="rotate(33.9906 105.304 -14.5295)" stroke="#E5E7EB" stroke-width="5"/>
<rect x="843.375" y="86.6086" width="35.2856" height="31.8976" stroke="#E5E7EB" stroke-width="5"/>
<rect x="1060.84" y="138.815" width="35.2856" height="31.8976" transform="rotate(30 1060.84 138.815)" stroke="#E5E7EB" stroke-width="5"/>
<rect x="1210.36" y="563.415" width="35.2856" height="31.8976" transform="rotate(30 1210.36 563.415)" stroke="#E5E7EB" stroke-width="5"/>
<rect x="1045.25" y="573.5" width="35.2856" height="31.8976" transform="rotate(40.5332 1045.25 573.5)" stroke="#E5E7EB" stroke-width="5"/>
<rect x="207.304" y="249.47" width="35.2856" height="31.8976" transform="rotate(33.9906 207.304 249.47)" stroke="#E5E7EB" stroke-width="5"/>
<rect x="111.304" y="626.47" width="35.2856" height="31.8976" transform="rotate(33.9906 111.304 626.47)" stroke="#E5E7EB" stroke-width="5"/>
<rect x="243.5" y="46.5" width="33" height="33" rx="16.5" stroke="#E5E7EB" stroke-width="5"/>
<rect x="458.5" y="63.5" width="33" height="33" rx="16.5" stroke="#E5E7EB" stroke-width="5"/>
<rect x="1169.5" y="65.5" width="33" height="33" rx="16.5" stroke="#E5E7EB" stroke-width="5"/>
<rect x="943.5" y="432.5" width="33" height="33" rx="16.5" stroke="#E5E7EB" stroke-width="5"/>
<rect x="1078.5" y="301.5" width="33" height="33" rx="16.5" stroke="#E5E7EB" stroke-width="5"/>
<rect x="113.5" y="437.5" width="33" height="33" rx="16.5" stroke="#E5E7EB" stroke-width="5"/>
<path d="M88.7031 267.915L70.0854 272.217L72.3507 288.556L54.4164 289.561L57.3452 308.283L39.0811 308.539L42.1346 328.059" stroke="#E5E7EB" stroke-width="5"/>
<path d="M285.703 509.915L267.085 514.217L269.351 530.556L251.416 531.561L254.345 550.283L236.081 550.539L239.135 570.059" stroke="#E5E7EB" stroke-width="5"/>
<path d="M388.269 222.618L383.512 204.112L367.233 206.777L365.789 188.873L347.144 192.259L346.44 174.007L327.001 177.538" stroke="#E5E7EB" stroke-width="5"/>
<path d="M953.269 263.618L948.512 245.112L932.233 247.777L930.789 229.873L912.144 233.259L911.44 215.007L892.001 218.538" stroke="#E5E7EB" stroke-width="5"/>
<path d="M1210.63 399.492L1191.68 401.97L1192.35 418.452L1174.41 417.714L1175.51 436.633L1157.3 435.118L1158.45 454.842" stroke="#E5E7EB" stroke-width="5"/>
<path d="M967.124 -6.49277L970.792 12.2603L987.199 10.5511L987.594 28.5091L1006.4 26.2178L1006.04 44.48L1025.65 42.091" stroke="#E5E7EB" stroke-width="5"/>
</g>
<defs>
<clipPath id="clip0_384:82">
<rect width="1280" height="720" fill="white"/>
</clipPath>
</defs>
</svg>
